<svg version="1.1" xmlns="http://www.w3.org/2000/svg" x="0px" y="0px" width="24" height="24" viewBox="0 0 24 24" enable-background="new 0 0 24 24" xml:space="preserve">
<path fill="#AAAAAA" d="M20.4,12c-1,0-1.8,0.6-2.2,1.4l-2.6-0.9c0.1-0.3,0.1-0.5,0.1-0.8c0-1.2-0.6-2.2-1.5-2.9l1.5-2.6
    c0.3,0.1,0.6,0.2,1,0.2c1.4,0,2.5-1.1,2.5-2.5c0-1.4-1.1-2.5-2.5-2.5c-1.4,0-2.5,1.1-2.5,2.5c0,0.8,0.4,1.5,0.9,1.9l-1.5,2.6
    C13.1,8.1,12.6,8,12,8c-0.9,0-1.7,0.3-2.3,0.9L7.4,6.6c0.3-0.4,0.5-0.9,0.5-1.5c0-1.4-1.1-2.5-2.5-2.5S2.7,3.7,2.7,5.1
    c0,1.4,1.1,2.5,2.5,2.5c0.6,0,1.1-0.2,1.5-0.5l2.3,2.3c-0.5,0.6-0.8,1.4-0.8,2.3c0,0.7,0.2,1.4,0.6,2l-3.9,3.8
    c-0.4-0.3-0.9-0.5-1.5-0.5c-1.4,0-2.5,1.1-2.5,2.5S2.2,22,3.6,22s2.5-1.1,2.5-2.5c0-0.5-0.2-1-0.5-1.5l3.8-3.7
    c0.7,0.7,1.6,1.1,2.6,1.1c0.1,0,0.2,0,0.2,0l0.4,2.4c-1,0.3-1.7,1.3-1.7,2.4c0,1.4,1.1,2.5,2.5,2.5s2.5-1.1,2.5-2.5
    c0-1.4-1.1-2.5-2.5-2.5c0,0,0,0,0,0L13,15.2c1-0.3,1.9-1,2.3-2l2.6,0.9c0,0.1,0,0.3,0,0.4c0,1.4,1.1,2.5,2.5,2.5s2.5-1.1,2.5-2.5
    C23,13.1,21.8,12,20.4,12z"/>
</svg>
